<?xml version="1.0" encoding="utf-8"?>
<!-- Uploaded to: SVG Repo, www.svgrepo.com, Generator: SVG Repo Mixer Tools -->
<svg width="800px" height="800px" viewBox="0 0 48 48" xmlns="http://www.w3.org/2000/svg">
  <title>domain</title>
  <g id="Layer_2" data-name="Layer 2">
    <g id="invisible_box" data-name="invisible box">
      <rect width="48" height="48" fill="none"/>
    </g>
    <g id="icons_Q2" data-name="icons Q2">
      <path d="M24,2A22,22,0,1,0,46,24,21.9,21.9,0,0,0,24,2ZM40.1,16H35.2a27.8,27.8,0,0,0-3-8A18.5,18.5,0,0,1,40.1,16ZM42,24a17.5,17.5,0,0,1-.5,4H35.8c.1-1.3.2-2.6.2-4s-.1-2.7-.2-4h5.7A17.5,17.5,0,0,1,42,24ZM6,24a17.5,17.5,0,0,1,.5-4h5.7c-.1,1.3-.2,2.6-.2,4s.1,2.7.2,4H6.5A17.5,17.5,0,0,1,6,24Zm10,0c0-1.4.1-2.7.2-4H22v8H16.2C16.1,26.7,16,25.4,16,24ZM26,6.7a11.7,11.7,0,0,1,3,3.7A21.7,21.7,0,0,1,31.1,16H26Zm-4,0V16H16.9A21.7,21.7,0,0,1,19,10.4,11.7,11.7,0,0,1,22,6.7ZM22,32v9.3a11.7,11.7,0,0,1-3-3.7A21.7,21.7,0,0,1,16.9,32Zm4,9.3V32h5.1A21.7,21.7,0,0,1,29,37.6,11.7,11.7,0,0,1,26,41.3ZM26,28V20h5.8c.1,1.3.2,2.6.2,4s-.1,2.7-.2,4ZM15.8,8a27.8,27.8,0,0,0-3,8H7.9A18.5,18.5,0,0,1,15.8,8ZM7.9,32h4.9a27.8,27.8,0,0,0,3,8A18.5,18.5,0,0,1,7.9,32Zm24.3,8a27.8,27.8,0,0,0,3-8h4.9A18.5,18.5,0,0,1,32.2,40Z"/>
    </g>
  </g>
</svg>