<svg id="Layer_1" data-name="Layer 1" xmlns="http://www.w3.org/2000/svg" xmlns:xlink="http://www.w3.org/1999/xlink" viewBox="0 0 78 150"><defs><style>.cls-1,.cls-2,.cls-3,.cls-4,.cls-5,.cls-6{fill-rule:evenodd;}.cls-1{fill:url(#linear-gradient);}.cls-2{fill:url(#linear-gradient-2);}.cls-3{fill:#004c83;}.cls-4{fill:url(#linear-gradient-3);}.cls-5{fill:url(#linear-gradient-4);}.cls-6{fill:url(#linear-gradient-5);}</style><linearGradient id="linear-gradient" x1="19.91" y1="88.35" x2="72.01" y2="88.35" gradientUnits="userSpaceOnUse"><stop offset="0" stop-color="#66b689"/><stop offset="1" stop-color="#004c83"/></linearGradient><linearGradient id="linear-gradient-2" x1="18.81" y1="17.18" x2="60.51" y2="17.18" gradientUnits="userSpaceOnUse"><stop offset="0" stop-color="#004c83"/><stop offset="1" stop-color="#66b689"/></linearGradient><linearGradient id="linear-gradient-3" x1="6.32" y1="26.13" x2="73" y2="26.13" xlink:href="#linear-gradient"/><linearGradient id="linear-gradient-4" x1="9.78" y1="57.56" x2="66.5" y2="57.56" xlink:href="#linear-gradient-2"/><linearGradient id="linear-gradient-5" x1="5" y1="77.63" x2="69.54" y2="77.63" xlink:href="#linear-gradient"/></defs><path class="cls-1" d="M67.48,34.32l-.06-.17c-.36-.89-.75-1.79-1.16-2.7.1.56.18,1.11.25,1.65,0,.18,0,.36.07.55,0,.35.09.7.12,1s0,.42,0,.63.06.61.08.91,0,.43,0,.64,0,.58,0,.86v.64c0,.27,0,.54,0,.8s0,.42,0,.63l0,.77c0,.2,0,.4,0,.6s0,.51-.07.76,0,.38-.07.57l-.09.74c0,.19-.06.37-.1.56l-.12.71-.12.54-.15.7c0,.17-.09.34-.14.51l-.18.68c0,.17-.11.33-.16.5l-.21.66-.18.47-.24.65c-.06.16-.13.31-.19.46l-.27.63-.21.44c-.09.21-.19.42-.29.62s-.15.28-.22.42l-.33.61-.23.4c-.12.2-.23.4-.36.6l-.24.38c-.12.2-.25.4-.38.59s-.17.25-.25.37l-.41.58-.26.35-.44.58-.26.33-.47.57a3.88,3.88,0,0,1-.26.31l-.5.58c-.09.09-.17.19-.26.29l-.53.57-.26.27-.56.58-.26.25c-.19.2-.39.39-.59.58l-.25.24-.63.59-.23.21-.67.6-.21.18-.71.62-.19.16-.76.63-.15.13-.83.67-.08.07-.92.73h0l-1,.77h0C40,74.11,27.76,81.62,22.12,96.9c-.21.56-.4,1.12-.58,1.68-.06.19-.11.37-.16.56q-.18.57-.33,1.14c-.06.21-.11.43-.16.65s-.17.7-.24,1-.09.46-.14.7-.13.67-.18,1-.07.47-.1.71-.09.67-.13,1-.05.47-.07.7-.05.67-.07,1l0,.69c0,.34,0,.68,0,1v.67l0,1c0,.21,0,.43,0,.64,0,.36.06.72.09,1.08,0,.2,0,.4.07.6,0,.38.1.76.16,1.14,0,.18.05.36.08.54.07.41.16.82.25,1.24,0,.14.05.28.09.43.11.48.23,1,.36,1.45l.06.21a34.43,34.43,0,0,0,1.85,5l.13.28c.21.45.42.89.65,1.33a.93.93,0,0,0,.05.1h0c3.95,7.61,10.91,14.7,20.94,20.69h0C29.45,102.33,88.36,85.69,67.48,34.32Z"/><path class="cls-2" d="M59.51,15.1l-.33-.22c-.25-.17-.52-.33-.79-.49L58,14.16l-.91-.51-.32-.17c-.43-.22-.87-.43-1.32-.64h0a39.31,39.31,0,0,0-31.53,0h0c-.45.21-.89.42-1.32.64l-.32.18c-.31.16-.61.33-.91.5l-.38.23c-.27.16-.54.32-.79.49l-.33.22c-.35.24-.69.48-1,.72,4.86,5.11,12.67,5.51,20.85,9,7.12-4.58,15.6-3.28,20.85-9C60.2,15.58,59.86,15.34,59.51,15.1Z"/><path class="cls-3" d="M33.61,40.65a21.57,21.57,0,0,0-6.52-5.91,65.66,65.66,0,0,0-7.84-3.88q0,.41,0,.81a1.77,1.77,0,0,0,0,.23c0,.2,0,.41,0,.61a1.23,1.23,0,0,0,0,.2,11,11,0,0,0,.29,1.56s0,0,0,.06h0c1.44,5.35,6.8,8.88,13.49,6.5h0Z"/><path class="cls-3" d="M60,32.5c0-.2,0-.4,0-.6a1.69,1.69,0,0,0,0-.23q0-.41,0-.81a66.41,66.41,0,0,0-7.84,3.88,21.57,21.57,0,0,0-6.52,5.91l.49.18h0c6.68,2.38,12-1.15,13.48-6.5h0s0,0,0-.07A11,11,0,0,0,60,32.72,1.64,1.64,0,0,0,60,32.5Z"/><path class="cls-4" d="M72.84,8.19h0v0c-.06-.5-.15-1-.24-1.52l-.06-.31c-.1-.52-.22-1-.36-1.58-.1.44-.21.87-.34,1.28,0,.13-.08.25-.12.38-.1.28-.19.55-.3.81s-.11.27-.17.4-.22.49-.34.72-.12.24-.19.36-.3.5-.45.74l-.15.24c-.22.31-.44.6-.68.89l-.17.18c-.19.22-.39.43-.59.64l-.28.26c-.18.17-.37.33-.57.49l-.31.25c-.2.16-.42.32-.64.47l-.29.2c-.3.19-.61.38-.93.56l0,0c-.35.19-.7.37-1.07.54l-.33.15-.8.35-.42.16c-.26.11-.53.21-.8.3l-.42.15c-.31.11-.63.21-1,.3l-.32.1-.34.1q-.78.22-1.59.42l-.55.13c-.64.16-1.29.3-2,.45-5.46,1.13-11.76,2.46-16.4,6-4.64-3.5-10.94-4.83-16.4-6-.67-.15-1.33-.29-2-.45l-.53-.13c-.55-.13-1.08-.27-1.6-.42l-.34-.1-.32-.1c-.32-.09-.63-.19-.94-.3l-.43-.15c-.27-.09-.54-.19-.8-.3l-.41-.16c-.28-.11-.54-.23-.81-.35l-.33-.15c-.36-.17-.72-.35-1.07-.54l-.05,0c-.32-.18-.63-.37-.93-.56l-.3-.21c-.21-.15-.43-.3-.63-.46l-.31-.25c-.2-.16-.38-.32-.57-.49l-.28-.26c-.2-.21-.4-.42-.59-.64l-.17-.18c-.23-.29-.46-.58-.68-.89l-.15-.24C8.9,9.2,8.74,9,8.6,8.7l-.19-.36c-.12-.23-.23-.47-.34-.72S8,7.35,7.9,7.22s-.2-.53-.3-.81L7.48,6c-.13-.41-.24-.84-.34-1.28-.14.54-.25,1.06-.36,1.58l-.06.32c-.09.51-.17,1-.24,1.51v0h0C5.25,18.35,11.24,24.7,20.18,28.68c8.42,3.73,16,7,19.48,18.82,3.53-11.86,11.06-15.09,19.48-18.82C68.08,24.7,74.07,18.35,72.84,8.19Z"/><path class="cls-5" d="M61.62,48.74l-.14.18a23,23,0,0,0,5-14.28,21.3,21.3,0,0,0-.19-2.9c-1.57,12.18-12.9,21.63-26.65,21.63S14.59,43.93,13,31.75c0-.08,0-.16,0-.24l-.35.86a45.52,45.52,0,0,0-2.9,15.92,34.74,34.74,0,0,0,7.11,21.32h0c.38.49.77,1,1.19,1.47q1,1.11,2,2.16l.29.3.07.07h0l.26.24c.51.51,1,1,1.56,1.49l.64.59c.68.6,1.38,1.2,2.09,1.78l.12.1c.76.62,1.53,1.22,2.32,1.81l.23.18h0c1.76,1.32,3.57,2.58,5.41,3.81a20.07,20.07,0,0,1,3.1-3.25c.31-.27.63-.56,1-.84l.21-.19c.42-.36.86-.73,1.32-1.1a2.31,2.31,0,0,1,.24-.2l1.26-1,.24-.2,1.49-1.21h0C51,68.15,63.25,58,61.62,48.74ZM12.94,32.45c0,.22,0,.45-.07.68C12.89,32.9,12.92,32.67,12.94,32.45ZM43.18,59h0Zm1.53-.22.11,0h-.11Zm3.06-.7h0l.34-.1h0Zm1.38-.44.27-.1-.22.08Zm1.39-.52L50.7,57l-.11,0ZM55,54.8l.21-.14-.13.09ZM56,54.07l.35-.25-.16.12Zm1.17-.88.24-.19a.39.39,0,0,1-.1.08Zm3.61-3.47Z"/><path class="cls-6" d="M66.26,31.45c0,.82,0,1.61,0,2.39,0,.4,0,.79-.06,1.18C64.73,59.37,37.65,62,19.47,74.24c-15.82,10.69-20.11,31-5.58,47.34v0c.1.12.22.23.32.35l.44.48c.43.46.87.92,1.33,1.37C14.92,93.67,45.46,89.55,61.24,71.08,76.3,53.47,66.26,31.45,66.26,31.45Z"/></svg>