<svg id="Layer_1" data-name="Layer 1" xmlns="http://www.w3.org/2000/svg" xmlns:xlink="http://www.w3.org/1999/xlink" viewBox="0 0 494.19 150"><defs><style>.cls-1{fill:#fff;}.cls-2,.cls-3,.cls-4,.cls-5,.cls-6,.cls-7{fill-rule:evenodd;}.cls-2{fill:url(#linear-gradient);}.cls-3{fill:url(#linear-gradient-2);}.cls-4{fill:#004c83;}.cls-5{fill:url(#linear-gradient-3);}.cls-6{fill:url(#linear-gradient-4);}.cls-7{fill:url(#linear-gradient-5);}</style><linearGradient id="linear-gradient" x1="20.52" y1="88.35" x2="72.63" y2="88.35" gradientUnits="userSpaceOnUse"><stop offset="0" stop-color="#66b689"/><stop offset="1" stop-color="#004c83"/></linearGradient><linearGradient id="linear-gradient-2" x1="19.42" y1="17.18" x2="61.12" y2="17.18" gradientUnits="userSpaceOnUse"><stop offset="0" stop-color="#004c83"/><stop offset="1" stop-color="#66b689"/></linearGradient><linearGradient id="linear-gradient-3" x1="6.93" y1="26.13" x2="73.61" y2="26.13" xlink:href="#linear-gradient"/><linearGradient id="linear-gradient-4" x1="10.39" y1="57.56" x2="67.11" y2="57.56" xlink:href="#linear-gradient-2"/><linearGradient id="linear-gradient-5" x1="5.61" y1="77.63" x2="70.15" y2="77.63" xlink:href="#linear-gradient"/></defs><path class="cls-1" d="M156,90.48H127.24L120.94,110H103.75l28.43-81.89h20.15L180.76,110H162.2ZM130.93,77.26h21.45L142.22,45.14h-1Z"/><path class="cls-1" d="M188.24,47.41h16v10h1c1.65-6.25,8.12-11,16.06-11a23.17,23.17,0,0,1,6.47.79v15a30.12,30.12,0,0,0-7.83-1c-9,0-15.21,5.33-15.21,14.13V110H188.24Z"/><path class="cls-1" d="M273.9,47.41h18.78L268.85,74.25,294.33,110H274.75L256.48,84.58l-4.54,4.65V110H235.42V23.52h16.52V71.87h1Z"/><path class="cls-1" d="M301.46,28.57a9.37,9.37,0,1,1,9.36,9.48A9.38,9.38,0,0,1,301.46,28.57Zm17.59,18.84h0V110H302.54V63.92A16.51,16.51,0,0,1,319.05,47.41Z"/><path class="cls-1" d="M327.38,47.41h16V57.62h1c2.55-7.15,9.08-11.57,17.31-11.57,8.79,0,14.81,4.31,17.3,11.57h1c2.89-7,10.1-11.57,18.84-11.57,12.48,0,20.26,8.11,20.26,21v43H402.63V71.41c0-7.43-3.46-11.12-10.44-11.12-6.7,0-11,4.77-11,11.41V110H365.29V70.73c0-6.64-3.86-10.44-10.33-10.44s-11.06,5.05-11.06,12V93.49A16.51,16.51,0,0,1,327.38,110h0Z"/><path class="cls-1" d="M485.85,92.18c-2.44,11.75-13.28,19.18-28.6,19.18-19.07,0-30.3-12-30.3-32.34s11.46-33,30.07-33c18.45,0,29.34,11.74,29.34,31.61v5h-43v.85c.23,9.3,5.68,15.09,14.3,15.09,6.53,0,11-2.32,12.77-6.47Zm-42.39-20h26.67c-.34-8.28-5.33-13.45-13.05-13.45S444,64,443.46,72.15Z"/><path class="cls-2" d="M68.1,34.32a1.22,1.22,0,0,1-.07-.17c-.36-.89-.75-1.79-1.16-2.7.1.56.18,1.11.25,1.65,0,.18,0,.36.07.55,0,.35.09.7.12,1s0,.42,0,.63.06.61.08.91,0,.43,0,.64,0,.58,0,.86v.64c0,.27,0,.54,0,.8s0,.42,0,.63l0,.77c0,.2,0,.4,0,.6s0,.51-.07.76,0,.38-.07.57l-.09.74c0,.19-.06.37-.1.56s-.07.48-.12.71l-.12.54-.15.7c-.05.17-.09.34-.14.51l-.18.68c0,.17-.11.33-.16.5L66,48.1l-.18.47c-.08.22-.15.44-.24.65s-.13.31-.19.46l-.27.63-.21.44c-.09.21-.19.42-.29.62s-.15.28-.22.42l-.33.61-.23.4c-.12.2-.23.4-.36.6s-.16.25-.24.38-.25.4-.38.59-.17.25-.25.37l-.41.58-.26.35-.44.58-.26.33-.47.57a3.88,3.88,0,0,1-.26.31L60,58c-.09.09-.17.19-.26.29l-.53.57-.26.27-.56.58-.26.25c-.19.2-.39.39-.59.58l-.25.24-.63.59-.23.21-.67.6-.21.18-.71.62-.19.16-.76.63-.15.13-.83.67-.08.07-.92.73h0l-1,.77h0C40.65,74.11,28.37,81.62,22.73,96.9c-.21.56-.4,1.12-.58,1.68-.06.19-.11.37-.16.56q-.18.57-.33,1.14c-.06.21-.11.43-.16.65s-.17.7-.24,1-.09.46-.14.7-.13.67-.18,1-.07.47-.1.71-.09.67-.13,1,0,.47-.07.7-.05.67-.07,1l0,.69c0,.34,0,.68,0,1v.67c0,.35,0,.7,0,1l0,.64c0,.36.06.72.09,1.08,0,.2,0,.4.07.6,0,.38.1.76.16,1.14,0,.18.05.36.08.54.08.41.16.82.25,1.24,0,.14.05.28.09.43.11.48.23,1,.37,1.45a1.6,1.6,0,0,0,.05.21,34.43,34.43,0,0,0,1.85,5l.13.28c.21.45.42.89.65,1.33a.93.93,0,0,0,.05.1h0c3.95,7.61,10.91,14.7,20.94,20.69h0C30.06,102.33,89,85.69,68.1,34.32Z"/><path class="cls-3" d="M60.12,15.1l-.33-.22c-.25-.17-.52-.33-.79-.49l-.38-.23-.91-.51-.32-.17c-.43-.22-.87-.43-1.32-.64h0a39.31,39.31,0,0,0-31.53,0h0c-.45.21-.89.42-1.32.64l-.32.18c-.31.16-.61.33-.91.5l-.38.23-.79.49-.33.22c-.35.24-.68.48-1,.72,4.87,5.11,12.67,5.51,20.85,9,7.12-4.58,15.6-3.28,20.85-9C60.81,15.58,60.47,15.34,60.12,15.1Z"/><path class="cls-4" d="M34.22,40.65a21.57,21.57,0,0,0-6.52-5.91,65.66,65.66,0,0,0-7.84-3.88q0,.41,0,.81a1.77,1.77,0,0,0,0,.23c0,.2,0,.41,0,.61s0,.14,0,.2a11,11,0,0,0,.29,1.56.13.13,0,0,1,0,.06h0c1.44,5.35,6.8,8.88,13.49,6.5h0Z"/><path class="cls-4" d="M60.63,32.5c0-.2,0-.4,0-.6a1.69,1.69,0,0,0,0-.23q0-.41,0-.81a66.41,66.41,0,0,0-7.84,3.88,21.57,21.57,0,0,0-6.52,5.91l.49.18h0c6.68,2.38,12-1.15,13.49-6.5h0s0,0,0-.07a9.74,9.74,0,0,0,.29-1.54A1.64,1.64,0,0,0,60.63,32.5Z"/><path class="cls-5" d="M73.45,8.19h0v0c-.06-.5-.14-1-.24-1.52l-.06-.31c-.1-.52-.22-1-.36-1.58-.09.44-.21.87-.33,1.28,0,.13-.09.25-.13.38q-.14.42-.3.81c0,.14-.11.27-.17.4s-.22.49-.34.72-.12.24-.19.36-.3.5-.45.74l-.15.24c-.22.31-.44.6-.68.89l-.17.18c-.19.22-.39.43-.59.64l-.28.26c-.18.17-.37.33-.57.49l-.31.25c-.2.16-.42.32-.63.47l-.29.2c-.31.19-.62.38-.94.56l0,0c-.35.19-.7.37-1.07.54l-.33.15-.8.35-.42.16c-.26.11-.53.21-.8.3l-.42.15c-.31.11-.63.21-1,.3l-.32.1-.34.1q-.78.22-1.59.42l-.55.13c-.64.16-1.29.3-2,.45-5.46,1.13-11.76,2.46-16.4,6-4.64-3.5-10.94-4.83-16.4-6-.67-.15-1.33-.29-2-.45l-.53-.13c-.55-.13-1.08-.27-1.6-.42l-.34-.1-.32-.1c-.32-.09-.63-.19-.94-.3l-.42-.15q-.42-.13-.81-.3l-.41-.16c-.28-.11-.54-.23-.81-.35l-.33-.15c-.36-.17-.72-.35-1.06-.54l-.06,0c-.32-.18-.63-.37-.93-.56l-.3-.21-.63-.46-.31-.25c-.2-.16-.38-.32-.57-.49l-.27-.26c-.21-.21-.41-.42-.6-.64l-.16-.18c-.24-.29-.47-.58-.69-.89-.05-.08-.09-.16-.15-.24C9.51,9.2,9.35,9,9.21,8.7S9.09,8.46,9,8.34s-.23-.47-.34-.72-.12-.27-.17-.4-.2-.53-.3-.81L8.09,6c-.13-.41-.24-.84-.34-1.28-.14.54-.25,1.06-.36,1.58l-.06.32c-.09.51-.17,1-.23,1.51v0h0C5.86,18.35,11.85,24.7,20.79,28.68c8.42,3.73,16,7,19.48,18.82C43.8,35.64,51.33,32.41,59.75,28.68,68.7,24.7,74.68,18.35,73.45,8.19Z"/><path class="cls-6" d="M62.23,48.74l-.14.18a23,23,0,0,0,5-14.28,21.3,21.3,0,0,0-.19-2.9C65.35,43.92,54,53.37,40.27,53.37S15.2,43.93,13.62,31.75a2,2,0,0,1,0-.24c-.06.12-.18.41-.36.86a45.52,45.52,0,0,0-2.9,15.92A34.74,34.74,0,0,0,17.5,69.61h0c.38.49.77,1,1.19,1.47q1,1.11,2,2.16l.29.3.07.07h0l.26.24c.51.51,1,1,1.56,1.49l.64.59c.68.6,1.38,1.2,2.09,1.78l.12.1c.76.62,1.54,1.22,2.32,1.81l.23.18h0c1.76,1.32,3.57,2.58,5.41,3.81a20.07,20.07,0,0,1,3.1-3.25c.31-.27.63-.56,1-.84l.21-.19c.42-.36.86-.73,1.32-1.1a2.31,2.31,0,0,1,.24-.2l1.26-1,.24-.2,1.49-1.21h0C51.61,68.15,63.86,58,62.23,48.74ZM13.55,32.45c0,.22-.05.45-.07.68C13.5,32.9,13.53,32.67,13.55,32.45ZM43.79,59h0Zm1.53-.22.12,0h-.12Zm3.06-.7h0l.34-.1h0Zm1.38-.44.27-.1-.22.08Zm1.39-.52.16-.07-.11,0Zm4.41-2.27.21-.14-.13.09Zm1.09-.73.35-.25-.16.12Zm1.17-.88.24-.19a.39.39,0,0,1-.1.08Zm3.61-3.47Z"/><path class="cls-7" d="M66.87,31.45c0,.82,0,1.61,0,2.39,0,.4,0,.79-.06,1.18C65.34,59.37,38.26,62,20.08,74.24,4.26,84.93,0,105.24,14.5,121.58v0c.1.12.22.23.32.35l.44.48c.43.46.87.92,1.33,1.37C15.53,93.67,46.07,89.55,61.85,71.08,76.91,53.47,66.87,31.45,66.87,31.45Z"/></svg>