<svg id="Layer_1" data-name="Layer 1" xmlns="http://www.w3.org/2000/svg" viewBox="0 0 150 150"><defs><style>.cls-1{fill:#fff;}</style></defs><path class="cls-1" d="M144.81,69.84a70,70,0,1,0-64.65,75A70,70,0,0,0,144.81,69.84ZM60.71,97h0a0,0,0,0,1,0,0c-.25.46-.49.92-.71,1.4a22.26,22.26,0,0,0-1.84,7,20,20,0,0,1-4.29-12.09,19.3,19.3,0,0,1,8.4-15.6l.44-.32c.21-.14.41-.28.64-.42l.15-.1,1.26-.8c5.33-3.19,11.71-5.48,17.21-8.64a32.8,32.8,0,0,0,5-3.47,10.13,10.13,0,0,0,1-.88h0a.58.58,0,0,0,.14-.13h0a6.26,6.26,0,0,0,.51-.52h0c.22-.21.44-.44.64-.67s.49-.58.73-.89h0s0,0,.06-.06l0-.05h0l.36-.47.35-.52a17.31,17.31,0,0,0,1.53-2.82v0h0c.17-.4.33-.8.47-1.22,0,.14,0,.28.05.42A25.41,25.41,0,0,1,93,58.81c0,.36,0,.71,0,1.09h0a21.74,21.74,0,0,1-5.09,13.32A43.16,43.16,0,0,1,79.3,80.7C74.54,84,69.35,87,65.21,91.08h0l-.1.1a29.29,29.29,0,0,0-2.34,2.63A22.31,22.31,0,0,0,60.71,97ZM75,63.72a19.83,19.83,0,0,0,12.16-4.09c-2.73,3.22-6.82,5.56-11.41,7.76-4.24,2-8.87,3.94-13.06,6.53q-.31-.33-.6-.69h0c-.23-.28-.45-.55-.67-.84a.35.35,0,0,0,0-.08A21.91,21.91,0,0,1,57,58.94v-.13a27.88,27.88,0,0,1,.59-5.66A19.12,19.12,0,0,0,75,63.72ZM61.66,47.9c0-.18,0-.36,0-.54a43,43,0,0,1,5.12,2.57,14.36,14.36,0,0,1,4.26,3.93l-.32.13h0c-4.36,1.58-7.87-.76-8.81-4.32h0s0,0,0,0a6.94,6.94,0,0,1-.19-1c0-.05,0-.09,0-.14l0-.4A.76.76,0,0,0,61.66,47.9Zm17.29,6a14.36,14.36,0,0,1,4.26-3.93,43,43,0,0,1,5.12-2.57c0,.18,0,.36,0,.53a.92.92,0,0,0,0,.16l0,.4s0,.09,0,.14a6.94,6.94,0,0,1-.19,1s0,0,0,0h0c-.94,3.56-4.45,5.9-8.81,4.32h0Zm12.74,23.4C89,83.43,85,89,81.5,94.85s-6.35,12-6.35,19.15a28.18,28.18,0,0,0,.66,6A31.73,31.73,0,0,1,66,109.08s0,0,0,0,0,0,0,0v0c-.14-.28-.27-.55-.4-.84h0l-.08-.16v0a21.58,21.58,0,0,1-1.11-3.09v0l0-.11v0c-.09-.3-.16-.6-.23-.91l-.06-.27c-.05-.27-.1-.52-.14-.77,0-.09,0-.2-.06-.34s-.07-.48-.09-.7,0-.24,0-.38h0c0-.24-.05-.46-.06-.67h0c0-.12,0-.26,0-.4s0-.44,0-.66a2.91,2.91,0,0,1,0-.3v-.12c0-.2,0-.42,0-.63s0-.3,0-.43,0-.26,0-.39h0l.34-.56c2.76-4.4,7.26-7.62,12.15-10.89S86.29,79.71,90.28,75a24,24,0,0,0,4.06-6.86A34.9,34.9,0,0,1,91.69,77.26Zm-4-31.36C82.23,48.39,77.31,50.54,75,58.42c-2.31-7.88-7.23-10-12.72-12.52-5.85-2.64-9.76-6.86-9-13.61h0v0c0-.32.09-.66.15-1,0-.07,0-.14,0-.21.07-.35.14-.69.23-1.05.07.29.14.58.23.85a1.83,1.83,0,0,0,.08.25c.06.19.12.37.19.54l.11.27c.07.16.15.32.23.47l.12.24a4.14,4.14,0,0,0,.3.5l.09.15a6.7,6.7,0,0,0,.45.6l.11.12a5.11,5.11,0,0,0,.39.42,1.45,1.45,0,0,0,.18.17,3.8,3.8,0,0,0,.37.33l.2.17c.13.11.27.21.41.31l.2.13c.19.13.39.26.6.38l0,0c.23.13.46.25.7.36l.21.1.53.24.27.1.52.2.28.1.62.2.21.07.06,0,.58-.43.22-.14a5.54,5.54,0,0,1,.51-.33l.25-.16.6-.33.21-.12.86-.42h0a25.32,25.32,0,0,1,20.6,0h0c.3.14.58.28.86.43l.21.11.6.33.25.16q.26.15.51.33l.22.14.58.43.06,0,.21-.07.62-.2.27-.1.53-.2.27-.1.53-.24.21-.1c.24-.11.47-.23.7-.36l0,0c.22-.12.42-.25.62-.38l.18-.13a4.56,4.56,0,0,0,.42-.31l.2-.17a3.8,3.8,0,0,0,.37-.33,1.45,1.45,0,0,0,.18-.17c.14-.13.27-.28.4-.42l.1-.12a6.7,6.7,0,0,0,.45-.6l.09-.15a4.14,4.14,0,0,0,.3-.5l.12-.23c.08-.16.16-.32.23-.48l.11-.27c.07-.17.13-.35.19-.54a1.83,1.83,0,0,0,.08-.25c.09-.27.16-.55.23-.85.09.36.16.71.23,1.05a1.55,1.55,0,0,0,0,.21c.06.34.11.68.15,1h0C97.48,39,93.57,43.26,87.72,45.9Z"/></svg>