<svg id="Layer_1" data-name="Layer 1" xmlns="http://www.w3.org/2000/svg" viewBox="0 0 494.19 150"><defs><style>.cls-1,.cls-2{fill:#303030;}.cls-2{fill-rule:evenodd;}</style></defs><path class="cls-1" d="M156,90.48H127.24L120.94,110H103.75l28.43-81.89h20.15L180.76,110H162.2ZM130.93,77.26h21.45L142.22,45.14h-1Z"/><path class="cls-1" d="M188.24,47.41h16v10h1c1.65-6.25,8.12-11,16.06-11a23.17,23.17,0,0,1,6.47.79v15a30.12,30.12,0,0,0-7.83-1c-9,0-15.21,5.33-15.21,14.13V110H188.24Z"/><path class="cls-1" d="M273.9,47.41h18.78L268.85,74.25,294.33,110H274.75L256.48,84.58l-4.54,4.65V110H235.42V23.52h16.52V71.87h1Z"/><path class="cls-1" d="M301.46,28.57a9.37,9.37,0,1,1,9.36,9.48A9.38,9.38,0,0,1,301.46,28.57Zm17.59,18.84h0V110H302.54V63.92A16.51,16.51,0,0,1,319.05,47.41Z"/><path class="cls-1" d="M327.38,47.41h16V57.62h1c2.55-7.15,9.08-11.57,17.31-11.57,8.79,0,14.81,4.31,17.3,11.57h1c2.89-7,10.1-11.57,18.84-11.57,12.48,0,20.26,8.11,20.26,21v43H402.63V71.41c0-7.43-3.46-11.12-10.44-11.12-6.7,0-11,4.77-11,11.41V110H365.29V70.73c0-6.64-3.86-10.44-10.33-10.44s-11.06,5.05-11.06,12V93.49A16.51,16.51,0,0,1,327.38,110h0Z"/><path class="cls-1" d="M485.85,92.18c-2.44,11.75-13.28,19.18-28.6,19.18-19.07,0-30.3-12-30.3-32.34s11.46-33,30.07-33c18.45,0,29.34,11.74,29.34,31.61v5h-43v.85c.23,9.3,5.68,15.09,14.3,15.09,6.53,0,11-2.32,12.77-6.47Zm-42.39-20h26.67c-.34-8.28-5.33-13.45-13.05-13.45S444,64,443.46,72.15Z"/><path class="cls-2" d="M59.68,15.49l-.34-.23-.8-.51-.39-.24L57.22,14l-.33-.18c-.43-.22-.88-.45-1.34-.66l0,0h0a39.59,39.59,0,0,0-32.15,0h0l0,0c-.47.21-.91.43-1.35.66l-.33.18c-.32.17-.63.35-.92.52l-.4.24c-.27.17-.54.34-.8.52l-.34.22c-.35.25-.7.5-1,.75,5,5.31,12.92,5.71,21.27,9.34,7.26-4.76,15.91-3.41,21.26-9.34Q60.22,15.87,59.68,15.49Z"/><path class="cls-2" d="M33.27,42a22.22,22.22,0,0,0-6.65-6.14,70.28,70.28,0,0,0-8-4,8.07,8.07,0,0,0,0,.85c0,.08,0,.16,0,.23s0,.43,0,.64,0,.14,0,.21a11,11,0,0,0,.3,1.62s0,0,0,.06h0c1.46,5.55,6.93,9.21,13.75,6.74h0Z"/><path class="cls-2" d="M60.2,33.55c0-.21,0-.41,0-.62v-.24c0-.28,0-.56,0-.85a68.66,68.66,0,0,0-8,4A22.1,22.1,0,0,0,45.61,42l.5.19h0C52.93,44.66,58.4,41,59.87,35.45h0a.64.64,0,0,1,0-.07,12.18,12.18,0,0,0,.29-1.6A2,2,0,0,0,60.2,33.55Z"/><path class="cls-2" d="M73.27,8.32h0v0c-.06-.52-.14-1-.24-1.58L73,6.39c-.11-.54-.22-1.08-.37-1.64-.1.46-.21.9-.34,1.33l-.13.39c-.1.29-.19.57-.3.84l-.18.42c-.11.25-.22.5-.35.74s-.12.26-.19.38-.3.52-.46.77l-.15.24c-.22.32-.45.63-.7.93,0,.06-.11.12-.16.19l-.61.66-.28.27c-.19.17-.38.35-.58.51l-.32.26c-.21.17-.43.33-.65.48l-.29.21c-.31.2-.63.4-1,.59l0,0c-.35.2-.72.39-1.09.57l-.34.15-.82.37-.42.17-.82.31-.43.15L61,16l-.32.11-.35.1-1.62.44-.56.13c-.65.16-1.31.32-2,.46-5.57,1.18-12,2.56-16.72,6.19-4.73-3.63-11.16-5-16.73-6.19l-2-.46-.54-.13c-.56-.14-1.1-.29-1.63-.45l-.34-.09L17.86,16l-1-.31-.42-.15-.83-.31-.42-.17-.82-.36-.34-.16Q13.51,14.29,13,14l-.06,0c-.33-.19-.64-.39-.95-.59l-.3-.21c-.22-.15-.44-.31-.65-.48l-.31-.26-.58-.51-.28-.27c-.21-.21-.42-.44-.61-.66l-.17-.19q-.36-.45-.69-.93l-.16-.24c-.16-.25-.31-.51-.46-.77l-.19-.38c-.12-.24-.24-.49-.35-.74s-.12-.28-.17-.42-.21-.55-.3-.84c0-.13-.09-.26-.13-.39-.13-.43-.25-.87-.35-1.33-.14.56-.26,1.1-.36,1.64l-.06.33c-.1.53-.18,1-.25,1.56v0h0c-1.25,10.54,4.85,17.13,14,21.26,8.59,3.88,16.27,7.23,19.87,19.54C43,36.81,50.72,33.46,59.3,29.58,68.42,25.45,74.53,18.86,73.27,8.32Z"/><path class="cls-2" d="M63.29,74.94c-6.23,7.41-14.43,12.55-22,17.65s-14.65,10.11-19,17l-.54.87v0c0,.2,0,.4,0,.61s0,.43,0,.67,0,.67,0,1v.19a3.54,3.54,0,0,0,0,.46c0,.34,0,.69,0,1s0,.44,0,.63h0c0,.34.05.69.1,1h0c0,.22.05.41.08.6,0,.35.09.7.14,1.09,0,.22.06.39.09.54.07.38.15.77.22,1.19.05.21.08.35.1.42.11.48.22,1,.36,1.43v0l0,.17,0,.05a33.61,33.61,0,0,0,1.74,4.82v0l.13.25v0c.21.45.41.87.63,1.31l0,0s0,0,0,.06v0c3.1,6.06,8.16,11.85,15.28,17.05a44.1,44.1,0,0,1-1-9.36c0-11.23,4.51-20.79,9.92-29.89S61.35,88.16,65.5,78.53a55.27,55.27,0,0,0,4.13-14.31A37.45,37.45,0,0,1,63.29,74.94Z"/><path class="cls-2" d="M18.22,70.92c.35.45.69.89,1.05,1.32h0c.29.37.61.73.94,1.08,6.54-4,13.76-7,20.38-10.21C47.78,59.68,54.16,56,58.42,51a30.92,30.92,0,0,1-19,6.39c-12.14,0-22.59-6.77-27.19-16.49a43.3,43.3,0,0,0-.92,8.82v.2A34.2,34.2,0,0,0,18.14,70.8.35.35,0,0,1,18.22,70.92Z"/><path class="cls-2" d="M24.14,100.11h0c6.47-6.35,14.56-11,22-16.21A67.87,67.87,0,0,0,59.59,72.24a34,34,0,0,0,7.94-20.8v0c0-.58,0-1.13,0-1.7a41.34,41.34,0,0,0-.23-4.4c0-.22,0-.43-.08-.65-.22.65-.46,1.28-.72,1.9v0h0s0,0,0,0A27.37,27.37,0,0,1,64.12,51l-.55.81-.56.74h0a.35.35,0,0,1-.05.08s0,.07-.09.1h0c-.38.48-.75.93-1.14,1.38a14.1,14.1,0,0,1-1,1v0c-.25.27-.52.55-.8.81,0,0,0,0,0,0a2.19,2.19,0,0,1-.22.2l0,0a15.19,15.19,0,0,1-1.52,1.36,49.91,49.91,0,0,1-7.82,5.42c-8.58,4.94-18.54,8.5-26.87,13.5-.67.41-1.33.81-2,1.24l-.23.16c-.35.21-.66.43-1,.65s-.47.32-.69.5c-8.36,6-13.12,14.94-13.12,24.36a31.22,31.22,0,0,0,6.7,18.87A35.24,35.24,0,0,1,16,111.5c.34-.76.72-1.47,1.11-2.18a0,0,0,0,0,0,0h0a34.86,34.86,0,0,1,3.21-4.91A41.76,41.76,0,0,1,24,100.27C24,100.21,24.09,100.17,24.14,100.11Z"/></svg>