<svg id="Layer_1" data-name="Layer 1" xmlns="http://www.w3.org/2000/svg" viewBox="0 0 78 150"><defs><style>.cls-1{fill:#303030;fill-rule:evenodd;}</style></defs><path class="cls-1" d="M32.83,42a22.22,22.22,0,0,0-6.65-6.14,69.46,69.46,0,0,0-8-4c0,.29,0,.57,0,.85,0,.08,0,.16,0,.23s0,.43,0,.64a1.49,1.49,0,0,1,0,.21,14.46,14.46,0,0,0,.3,1.62s0,0,0,.06h0C20,41,25.51,44.66,32.32,42.19h0Z"/><path class="cls-1" d="M59.77,33.55c0-.21,0-.41,0-.62s0-.16,0-.24c0-.28,0-.56,0-.85a68.66,68.66,0,0,0-8,4A22.22,22.22,0,0,0,45.17,42l.5.19h0C52.49,44.66,58,41,59.43,35.45h0a.64.64,0,0,1,0-.07,12.18,12.18,0,0,0,.29-1.6Z"/><path class="cls-1" d="M72.84,8.32h0v0c-.06-.52-.14-1-.24-1.58l-.06-.32c-.11-.54-.22-1.08-.36-1.64-.1.46-.22.9-.35,1.33,0,.13-.09.26-.13.39q-.14.43-.3.84l-.17.42c-.11.25-.23.5-.35.74s-.13.26-.2.38-.3.52-.46.77l-.15.24q-.33.48-.69.93a1.54,1.54,0,0,0-.17.19l-.61.66-.28.27c-.19.17-.38.35-.58.51l-.31.26c-.22.17-.43.33-.66.48l-.29.21-1,.59-.06,0c-.35.2-.71.39-1.09.57l-.33.15-.82.37-.42.17-.83.31-.43.15-1,.31-.33.11-.1,0c-.29-.23-.59-.45-.9-.67l-.34-.23-.81-.51-.39-.24L56.78,14l-.32-.18c-.44-.22-.89-.45-1.35-.66l0,0h0a39.62,39.62,0,0,0-32.16,0h0l0,0q-.69.31-1.35.66l-.33.18-.92.52-.39.24c-.28.17-.55.34-.81.52l-.34.22c-.31.22-.61.44-.9.67l-.1,0L17.42,16l-1-.31L16,15.56l-.82-.31-.43-.17c-.27-.12-.55-.24-.81-.37l-.34-.15c-.38-.18-.74-.37-1.09-.57l-.06,0c-.33-.19-.64-.39-1-.59l-.3-.21c-.22-.15-.43-.31-.64-.48l-.32-.26-.58-.51-.28-.27C9.2,11.43,9,11.2,8.8,11a1.54,1.54,0,0,0-.17-.19q-.36-.45-.69-.93l-.15-.24c-.16-.25-.32-.51-.46-.77s-.13-.25-.2-.38S6.89,8,6.78,7.73l-.17-.42q-.17-.4-.3-.84l-.13-.39c-.13-.43-.25-.87-.35-1.33-.14.56-.25,1.1-.36,1.64l-.06.33q-.15.8-.24,1.56v0h0C3.91,18.86,10,25.45,19.14,29.58,27.72,33.46,35.4,36.81,39,49.12c3.6-12.31,11.28-15.66,19.86-19.54C68,25.45,74.09,18.86,72.84,8.32Z"/><path class="cls-1" d="M62.85,74.94c-6.23,7.41-14.43,12.55-22,17.65s-14.65,10.11-19,17c-.17.29-.36.58-.53.87l0,0c0,.2,0,.4,0,.61s0,.43,0,.67,0,.67,0,1v.19c0,.16,0,.3,0,.46,0,.34,0,.69,0,1a5.9,5.9,0,0,0,0,.63h0a9.71,9.71,0,0,0,.09,1h0c0,.22,0,.41.08.6,0,.35.1.7.14,1.09,0,.22.07.39.1.54.06.38.14.77.22,1.19q.06.32.09.42c.11.48.22,1,.36,1.43v0l.05.17v.05a34.87,34.87,0,0,0,1.74,4.82l0,0,.12.25,0,0c.2.45.4.87.62,1.31l0,0s0,0,0,.06l0,0c3.09,6.06,8.15,11.85,15.27,17.05a44.1,44.1,0,0,1-1-9.36c0-11.23,4.51-20.79,9.92-29.89S60.91,88.16,65.06,78.53a54.88,54.88,0,0,0,4.13-14.31A37.45,37.45,0,0,1,62.85,74.94Z"/><path class="cls-1" d="M17.78,70.92c.35.45.69.89,1,1.32h0c.3.37.61.73.94,1.08,6.54-4,13.76-7,20.38-10.21C47.34,59.68,53.73,56,58,51a30.89,30.89,0,0,1-19,6.39c-12.15,0-22.59-6.77-27.19-16.49a42.56,42.56,0,0,0-.93,8.82v.2A34.15,34.15,0,0,0,17.71,70.8.52.52,0,0,1,17.78,70.92Z"/><path class="cls-1" d="M23.7,100.11h0c6.46-6.35,14.56-11,22-16.21A68.21,68.21,0,0,0,59.16,72.24a33.93,33.93,0,0,0,7.93-20.8v0c0-.58,0-1.13,0-1.7a38.86,38.86,0,0,0-.23-4.4c0-.22,0-.43-.08-.65-.22.65-.45,1.28-.72,1.9v0h0s0,0,0,0A27.41,27.41,0,0,1,63.68,51l-.55.81-.56.74h0s0,0,0,.08,0,.07-.1.1h0c-.37.48-.75.93-1.14,1.38a12.29,12.29,0,0,1-1,1v0c-.25.27-.52.55-.8.81,0,0,0,0,0,0a1.46,1.46,0,0,1-.22.2l0,0a16.26,16.26,0,0,1-1.51,1.36,49.54,49.54,0,0,1-7.83,5.42C41.28,68,31.32,71.57,23,76.57c-.68.41-1.33.81-2,1.24l-.24.16c-.34.21-.66.43-1,.65s-.47.32-.68.5C10.76,85.14,6,94.06,6,103.48a31.16,31.16,0,0,0,6.7,18.87,35.24,35.24,0,0,1,2.86-10.85c.35-.76.72-1.47,1.11-2.18a0,0,0,0,0,0,0h0a34.86,34.86,0,0,1,3.21-4.91,43.2,43.2,0,0,1,3.65-4.11C23.59,100.21,23.65,100.17,23.7,100.11Z"/></svg>